<svg xmlns="http://www.w3.org/2000/svg" width="45" height="45" viewBox="0 0 45 45"><rect x="0" y="0" width="45" height="45" fill="#ffffff" fill-opacity="0.0" stroke-width="0" stroke="none" /><g fill="#ffffff"><path d="M18.2 8.7c1.5 0 2.7-1.2 2.7-2.7 0-1.5-1.2-2.7-2.7-2.7-1.5 0-2.7 1.2-2.7 2.7 0 1.4 1.2 2.7 2.7 2.7M38.3 16.4l-2.9-.5-1.7 3.3c.3.1.5.1.8.1 1.9 0 3.3-1.2 3.8-2.9M3.1 22c0-2.2 1.8-4 4-4h8.4v-6c0-1.5 1.2-2.7 2.7-2.7 1.5 0 2.7 1.2 2.7 2.7v1l4 1c.7.2 1.1.9 1 1.6-.2.7-.9 1.1-1.6 1l-3.4-.8V18h4l11-11.4-.3 3 5.4 3.6c.9.5 1.2 1.7.7 2.6-.4.7-1.2 1.1-2 .9l-.4-.1c-.5 2.1-2.4 3.7-4.7 3.7-.4 0-.9-.1-1.3-.2l-4.1 8.4V40c0 1-.8 1.8-1.8 1.8s-1.8-.8-1.8-1.8V28.2h-9L14.9 31l3.4 8.1c.5.9.2 2-.7 2.4-.9.5-2 .2-2.4-.7l-4-9.3v-3l-1.8 2.8V40c0 1-.8 1.8-1.8 1.8S5.8 41 5.8 40V30l1.5-2.3v-7.8l-1.5 2.2v6.5H3.1V22z"/></g></svg>