<svg xmlns="http://www.w3.org/2000/svg" width="45" height="45" viewBox="0 0 45 45"><rect x="0" y="0" width="45" height="45" fill="#ffffff" fill-opacity="0.0" stroke-width="0" stroke="none" /><g fill="#ffffff"><path d="M25.6 17.2L2.4 6.1V3.9l24 11.5z"/><path d="M17.7 29.3h10.2v9.1c0 1.5 1.2 2.7 2.7 2.7 1.5 0 2.7-1.2 2.7-2.7v-9.1c.8 0 .9-.5.9-1.1v-6.8l-8.5-4.2H7.5l-2.3-1.3c-.7-.4-1.7-.2-2.1.6-.4.7-.2 1.7.6 2.1l3.7 2.1v17.7c0 1.5 1.2 2.7 2.7 2.7 1.5 0 2.7-1.2 2.7-2.7v-6.9l4.9 8.2c.8 1.3 2.4 1.7 3.7.9 1.3-.8 1.7-2.4.9-3.7l-4.6-7.6zM26.5 15.4l7.6 3.6v-1.4h6.2l2.3-4.9L26.5 5z"/></g></svg>