<svg xmlns="http://www.w3.org/2000/svg" width="45" height="45" viewBox="0 0 45 45"><rect x="0" y="0" width="45" height="45" fill="#ffffff" fill-opacity="0.0" stroke-width="0" stroke="none" /><g fill="#ffffff"><path d="M36.1 33.5c1.2 0 2.1-.9 2.1-2.1 0-1.2-.9-2.1-2.1-2.1-1.2 0-2.1.9-2.1 2.1 0 1.1.9 2.1 2.1 2.1zm-4.9-2.1c0-2.7 2.2-4.8 4.8-4.8 2.7 0 4.8 2.2 4.8 4.8 0 2.7-2.2 4.8-4.8 4.8-2.6 0-4.8-2.2-4.8-4.8zM12.8 33.5c1.2 0 2.1-.9 2.1-2.1 0-1.2-.9-2.1-2.1-2.1-1.2 0-2.1.9-2.1 2.1 0 1.1 1 2.1 2.1 2.1zM8 31.4c0-2.7 2.2-4.8 4.8-4.8 2.7 0 4.8 2.2 4.8 4.8 0 2.7-2.2 4.8-4.8 4.8-2.7 0-4.8-2.2-4.8-4.8z"/><path d="M43.2 26.9v-4c0-1.8-2.1-2.2-2.1-2.2H32L28.6 15s-.4-.9-1.2-1.7c-.8-.8-2.4-.8-2.4-.8H6s-1.2.1-1.8.8c-.6.5-.5 1.6-.5 1.6V18c-.1 0-.2-.1-.2-.1H1.1c-.6 0-1.1.5-1.1 1.2v7.3c0 .7.5 1.2 1.1 1.2h2.3c.1 0 .2 0 .2-.1v3.6h2.8c.2-3.3 3-6 6.3-6 3.4 0 6.1 2.7 6.3 6h10.6c.2-3.3 2.9-6 6.3-6s6.2 2.7 6.3 6h1.4c.7 0 1.2-.5 1.2-1.2v-2.8l-1.6-.2zm-27.5-6.2H6.3v-6h9.4v6zm2.2 0v-6h7.8l3.4 6H17.9z"/></g></svg>