<svg xmlns="http://www.w3.org/2000/svg" width="45" height="45" viewBox="0 0 45 45"><rect x="0" y="0" width="45" height="45" fill="#ffffff" fill-opacity="0.0" stroke-width="0" stroke="none" /><g fill="#ffffff"><path d="M34.9 14.8V9.5h-.5c-1.5 0-2.6 1.2-2.6 2.7 0 1.5 1.2 2.7 2.6 2.7l.5-.1zM30.9 13.6l-2.3-4.7c-.5-1-1.5-1.6-2.7-1.6h-5.4c-.5 0-.9.4-.9.9s.4.9.9.9h5.4c.4 0 .9.3 1.1.7l1.5 3 2.4.8zM41.5 18.6c.7.2 1.2.9 1.2 1.6h-3.9c-5.1 0-9.3 4.2-9.3 9.4H16.8c0-4.2-2.7-7.7-6.4-8.9l-7-2.3 1.2-1.8c.4-.6 1.1-1 1.9-1H7l15.6 4.9c.2.1.4.1.6.1.7 0 1.3-.4 1.7-.9l3.5-5.2 13.1 4.1z"/><path d="M37.4 33.6c1.3 0 2.4-1.1 2.4-2.4 0-1.3-1.1-2.4-2.4-2.4-1.3 0-2.4 1.1-2.4 2.4.1 1.4 1.1 2.4 2.4 2.4m-6.3-2.4c0-3.5 2.8-6.4 6.3-6.4s6.3 2.9 6.3 6.4c0 3.5-2.8 6.4-6.3 6.4-3.5.1-6.3-2.8-6.3-6.4M8.2 33.2c1.4 0 2.6-1.2 2.6-2.6 0-1.5-1.2-2.6-2.6-2.6-1.4 0-2.6 1.2-2.6 2.6 0 1.4 1.2 2.6 2.6 2.6m-7-2.6c0-3.9 3.1-7 7-7s7 3.2 7 7c0 3.9-3.1 7-7 7-3.8 0-7-3.1-7-7"/></g></svg>