<svg xmlns="http://www.w3.org/2000/svg" viewBox="0 0 45 45"><rect x="0" y="0" width="45" height="45" fill="#ffffff" fill-opacity="0.0" stroke-width="0" stroke="none" /><g fill="#ffffff"><path d="M24.6 6.7c-.5-2-2.3-3.5-4.5-3.5-2.6 0-4.6 2.1-4.6 4.6 0 .4 0 .8.2 1.2h1.9c.1.3.3.5.3.5.6.8 1.5 1.3 2.5 1.3 1.7 0 3.1-1.4 3.1-3.1 0-.4.1-.7-.1-1.1l1.2.1zM24.5 34.3c-.5.5-1.2.9-1.9.9v-10l7-2 1.7 3.4-6.8 7.7z"/><path d="M18.6 11.3c-.5-.5-1.1-.8-1.9-.8-.8 0-1.5.4-2 .9l-5.5 8.4c-.1.4-.2.8-.2 1.3 0 .9.4 1.6 1.1 2.1l7.4 4.1v7c0 1 .8 1.8 1.8 1.8s1.8-.8 1.8-1.8v-8.7s.2-1.4-1.3-2.2L15.1 21l3.4-5.1 1.8 2.8c.4.6.8.8 1.3.8h4.6c1.9 0 1.9-2.4 0-2.4h-3.7l-3.9-5.8zM38.9 22.7c.1.1.1.2.1.3 0 .2-.2.4-.4.4h-.1c-.8-.3-1.3-.6-2.2-.6-.6 0-1.4.2-2.2.9l-.8-1.6c1-.3 1.8-.6 2.7-.6 1.3.1 2 .4 2.9 1.2z"/><path d="M8.2 24l7.8 4.3V30l-8.9-4.9c-.6-.3-1.5-.5-2.1-.5-.9 0-1.4.2-2.2.6h-.1c-.2 0-.4-.2-.4-.4 0-.1 0-.2.1-.3.9-.8 1.8-1.1 3.2-1.1.6-.1 1.5 0 2.6.6zM8.9 39.7c2.5 0 4.6-2 4.6-4.6 0-2.5-2-4.6-4.6-4.6-2.5 0-4.6 2.1-4.6 4.6 0 2.6 2 4.6 4.6 4.6zm-6.6-4.6c0-3.6 3-6.6 6.6-6.6 3.7 0 6.6 3 6.6 6.6 0 3.7-3 6.6-6.6 6.6-3.7.1-6.6-2.9-6.6-6.6zM36.2 39.7c2.5 0 4.6-2 4.6-4.6 0-2.5-2-4.6-4.6-4.6-2.5 0-4.6 2.1-4.6 4.6 0 2.6 2.1 4.6 4.6 4.6zm-6.6-4.6c0-3.6 3-6.6 6.6-6.6 3.7 0 6.6 3 6.6 6.6 0 3.7-3 6.6-6.6 6.6-3.6 0-6.6-2.9-6.6-6.6zM34.7 27.6l-3.2-6.4c-.4-.8-1.2-1.3-2.2-1.3h-2.1c-.4 0-.7.3-.7.7 0 .4.3.7.7.7h2.1c.4 0 .7.2.9.6l3 6.2 1.5-.5z"/></g></svg>