<svg xmlns="http://www.w3.org/2000/svg" width="45" height="45" viewBox="0 0 45 45"><rect x="0" y="0" width="45" height="45" fill="#ffffff" fill-opacity="0.0" stroke-width="0" stroke="none" /><g fill="#ffffff"><circle cx="24.6" cy="6.6" r="4"/><path d="M34.5 12.6V16l-4 .8c-.5.1-.8-.1-1-.3L28 14.9c-1.4-1.4-3.2-2.4-5-2.9l-2.6-.8L17 23.1c-.4 1.6.2 3.2 1.4 4.2l5.8 4.7c.2.5.4.9.4 1.5v8.9h4v-8.9c0-1.7-.6-3.3-1.7-4.7L23 24.3l1.9-6.7.2.2 1.6 1.6c1 1 2.2 1.5 3.5 1.5.4 0 .7 0 1.1-.1l3.2-.6v22.3h2V12.6h-2z"/><path d="M12.8 42.4H17l3.6-10-3.2-2.7zM15.4 21.5L18.6 11c-3.6-1-7.6 1-8.7 4.6l-1.2 4c-.6 1.8.6 3.8 2.4 4.4 1.9.5 3.7-.5 4.3-2.5z"/></g></svg>