<svg xmlns="http://www.w3.org/2000/svg" width="45" height="45" viewBox="0 0 45 45"><rect x="0" y="0" width="45" height="45" fill="#ffffff" fill-opacity="0.0" stroke-width="0" stroke="none" /><g fill="#ffffff"><path d="M4.4 22.7c-2.1 0-3.8 1.7-3.8 3.8v10.7c0 2.1 1.7 3.8 3.8 3.8 2.1 0 3.8-1.7 3.8-3.8V26.5c0-2.1-1.7-3.8-3.8-3.8zM40.6 22.7c-2.1 0-3.8 1.7-3.8 3.8v10.7c0 2.1 1.7 3.8 3.8 3.8 2.1 0 3.8-1.7 3.8-3.8V26.5c0-2.1-1.7-3.8-3.8-3.8z"/><path d="M39.3 15.5h-2.4L34.2 4.8c-.1-.4-.5-.7-1-.7H12c-.4 0-.8.3-1 .7L8.1 15.5H5.9l-2.5 3.9 5.7 2.9v5.1c0 .5.4 1 1 1h6.5l-7 3.9c-.5.3-.7.9-.4 1.3.2.3.5.5.9.5.2 0 .3 0 .5-.1l8.5-4.6V33h6.8v-3.7l8.5 4.6c.2.1.3.1.5.1.3 0 .7-.2.9-.5.3-.5.1-1.1-.4-1.3l-7-3.9H35c.5 0 1-.4 1-1v-5.1l5.7-2.9-2.4-3.8zm-23.4 7.7c-1.3 0-2.4-1.1-2.4-2.4 0-1.3 1.1-2.4 2.4-2.4s2.4 1.1 2.4 2.4c0 1.3-1.1 2.4-2.4 2.4zm13.2 0c-1.3 0-2.4-1.1-2.4-2.4 0-1.3 1.1-2.4 2.4-2.4 1.3 0 2.4 1.1 2.4 2.4 0 1.3-1.1 2.4-2.4 2.4zm2.7-7.7L30.6 11c-.1-.2-.2-.3-.4-.3H28c-.2 0-.4.1-.4.3l-1.2 4.5h-7.8L17.5 11c-.1-.2-.2-.3-.4-.3h-2.2c-.2 0-.4.1-.4.3l-1.2 4.5h-3L12.7 6h19.7l2.4 9.5h-3z"/></g></svg>