<svg xmlns="http://www.w3.org/2000/svg" width="45" height="45" viewBox="0 0 45 45"><rect x="0" y="0" width="45" height="45" fill="#ffffff" fill-opacity="0.0" stroke-width="0" stroke="none" /><g fill="#ffffff"><circle cx="28.3" cy="7.1" r="3.8"/><path d="M34 26.4c-4.2 0-7.7 3.5-7.7 7.7s3.5 7.7 7.7 7.7 7.7-3.5 7.7-7.7-3.4-7.7-7.7-7.7zm0 12.3c-2.5 0-4.6-2.1-4.6-4.6s2.1-4.6 4.6-4.6 4.6 2.1 4.6 4.6-2 4.6-4.6 4.6zM10.9 26.4c-4.2 0-7.7 3.5-7.7 7.7s3.5 7.7 7.7 7.7 7.7-3.5 7.7-7.7-3.4-7.7-7.7-7.7zm0 12.3c-2.5 0-4.6-2.1-4.6-4.6s2.1-4.6 4.6-4.6 4.6 2.1 4.6 4.6-2 4.6-4.6 4.6z"/><path d="M28.3 21.5c.6.8 1.5 1.2 2.5 1.2h7.1v-3.9h-6s-1-.4-1.2-.8c-4.8-6-5.6-7.1-7.1-7.1h-1c-1.5 0-2.7 1.2-8.3 6.7-2.1 2.1-1.9 4.8.2 6.2l6 3.5V36h3.8v-8.9c0-1.1-.4-1.9-1.1-2.7L21 22.2l4.3-3.8 3 3.1z"/></g></svg>